<svg width="78" height="63" viewBox="0 0 78 63" fill="none" xmlns="http://www.w3.org/2000/svg">	<path d="M75.1433 22.3848L75.0127 22.5973C75.0556 22.5252 75.0985 22.455 75.1375 22.3828H75.1433V22.3848Z" fill="#4B33FA"/>	<path d="M2.69406 40.1953C2.63751 40.2889 2.58291 40.3806 2.53026 40.4742H2.52051L2.69406 40.1953Z" fill="#111B21"/>	<path d="M62.5679 27.7258H36.3654C29.4428 27.7258 23.8306 22.1136 23.8306 15.191C23.8306 8.26843 29.4428 2.65625 36.3654 2.65625H62.5679C69.4905 2.65625 75.1027 8.26843 75.1027 15.191C75.1027 22.1136 69.4905 27.7258 62.5679 27.7258Z" fill="#111B21"/>	<path d="M62.5702 0.703125H36.3676C28.3803 0.703125 21.8828 7.20062 21.8828 15.1879C21.8828 23.1753 28.3803 29.6728 36.3676 29.6728H42.9158C51.7066 29.7586 57.9115 35.3161 59.495 43.0402C59.7524 44.2921 61.3943 44.5983 62.0671 43.5121L74.7539 23.0134C74.7539 23.0134 74.7657 22.9978 74.7696 22.99L75.0133 22.5961C75.0562 22.5239 75.0991 22.4537 75.1381 22.3816C76.3588 20.26 77.055 17.8049 77.055 15.1879C77.055 7.20062 70.5575 0.703125 62.5702 0.703125ZM69.054 23.5438C67.2619 24.94 65.0116 25.7707 62.5702 25.7707H36.3676C30.5312 25.7707 25.7829 21.0224 25.7829 15.186C25.7829 9.34955 30.5312 4.60123 36.3676 4.60123H62.5702C68.4066 4.60123 73.1549 9.34955 73.1549 15.186C73.1549 18.581 71.5481 21.6074 69.054 23.5438Z" fill="#4B33FA"/>	<path d="M73.1543 15.1941C73.1543 18.5891 71.5475 21.6156 69.0534 23.552C67.2613 24.9482 65.011 25.7789 62.5695 25.7789H36.367C30.5305 25.7789 25.7822 21.0306 25.7822 15.1941C25.7822 9.3577 30.5305 4.60938 36.367 4.60938H62.5695C68.406 4.60938 73.1543 9.3577 73.1543 15.1941Z" fill="#111B21"/>	<path d="M15.0958 35.1328H41.2984C48.221 35.1328 53.8331 40.745 53.8331 47.6676C53.8331 54.5902 48.221 60.2024 41.2984 60.2024H15.0958C8.17322 60.2024 2.56104 54.5902 2.56104 47.6676C2.56104 40.745 8.17322 35.1328 15.0958 35.1328Z" fill="#4B33FA"/>	<path d="M41.2987 33.1761H34.7505C25.9578 33.0903 19.7528 27.5327 18.1694 19.8086C17.912 18.5567 16.2701 18.2506 15.5973 19.3367L2.89676 39.8588C2.82656 39.9661 2.76026 40.0753 2.69396 40.1845C2.63741 40.2781 2.58281 40.3697 2.53016 40.4633C1.30944 42.585 0.611328 45.044 0.611328 47.6609C0.611328 55.6482 7.10882 62.1457 15.0961 62.1457H41.2987C49.286 62.1457 55.7835 55.6482 55.7835 47.6609C55.7835 39.6736 49.286 33.1761 41.2987 33.1761ZM41.2987 58.2457H15.0961C9.25971 58.2457 4.51139 53.4973 4.51139 47.6609C4.51139 44.2659 6.11821 41.2375 8.6123 39.3031C10.4044 37.9069 12.6567 37.0761 15.0961 37.0761H41.2987C47.1351 37.0761 51.8834 41.8245 51.8834 47.6609C51.8834 53.4973 47.1351 58.2457 41.2987 58.2457Z" fill="#111B21"/>	<path fill-rule="evenodd" clip-rule="evenodd" d="M13.9665 46.5595C14.9408 45.8589 16.4076 45.1719 18.3722 45.1719C20.3368 45.1719 21.8037 45.8589 22.7779 46.5595C23.2609 46.9069 23.6224 47.2568 23.8687 47.5275C23.9922 47.6632 24.088 47.7805 24.1569 47.8696C24.1914 47.9143 24.2192 47.952 24.2405 47.9817C24.2512 47.9965 24.2602 48.0094 24.2676 48.0201C24.2713 48.0254 24.2746 48.0303 24.2776 48.0345L24.2816 48.0405L24.2834 48.0432L24.2843 48.0445C24.2847 48.0451 24.2851 48.0457 23.0698 48.8594L24.2851 48.0457C24.7345 48.7168 24.5547 49.6252 23.8835 50.0746C23.2168 50.5211 22.3159 50.3466 21.8635 49.6863C21.8608 49.6826 21.8537 49.6728 21.8422 49.6579C21.817 49.6254 21.7714 49.5688 21.7052 49.496C21.5719 49.3495 21.3604 49.1431 21.07 48.9342C20.4974 48.5224 19.6154 48.0969 18.3722 48.0969C17.129 48.0969 16.2471 48.5224 15.6744 48.9342C15.384 49.1431 15.1726 49.3495 15.0393 49.496C14.973 49.5688 14.9274 49.6254 14.9022 49.6579C14.8907 49.6729 14.8836 49.6826 14.8809 49.6863C14.4285 50.3466 13.5276 50.5211 12.8609 50.0746C12.1897 49.6252 12.0099 48.7168 12.4593 48.0457L13.6746 48.8594C12.4593 48.0457 12.4597 48.0451 12.4601 48.0445L12.461 48.0432L12.4628 48.0405L12.4669 48.0345C12.4698 48.0303 12.4731 48.0254 12.4768 48.0201C12.4842 48.0094 12.4932 47.9965 12.5039 47.9817C12.5252 47.952 12.553 47.9143 12.5875 47.8696C12.6564 47.7805 12.7522 47.6632 12.8757 47.5275C13.122 47.2568 13.4835 46.9069 13.9665 46.5595Z" fill="white"/>	<path fill-rule="evenodd" clip-rule="evenodd" d="M33.6623 46.5595C34.6366 45.8589 36.1034 45.1719 38.068 45.1719C40.0326 45.1719 41.4995 45.8589 42.4737 46.5595C42.9567 46.9069 43.3182 47.2568 43.5645 47.5275C43.688 47.6632 43.7838 47.7805 43.8527 47.8696C43.8872 47.9143 43.915 47.952 43.9363 47.9817C43.947 47.9965 43.956 48.0094 43.9634 48.0201C43.9671 48.0254 43.9704 48.0303 43.9734 48.0345L43.9774 48.0405L43.9792 48.0432L43.9801 48.0445C43.9805 48.0451 43.9809 48.0457 42.7656 48.8594L43.9809 48.0457C44.4303 48.7168 44.2505 49.6252 43.5793 50.0746C42.9126 50.5211 42.0117 50.3466 41.5593 49.6863C41.5566 49.6826 41.5495 49.6728 41.538 49.6579C41.5128 49.6254 41.4672 49.5688 41.401 49.496C41.2677 49.3495 41.0562 49.1431 40.7658 48.9342C40.1932 48.5224 39.3112 48.0969 38.068 48.0969C36.8248 48.0969 35.9429 48.5224 35.3702 48.9342C35.0798 49.1431 34.8684 49.3495 34.7351 49.496C34.6688 49.5688 34.6232 49.6254 34.598 49.6579C34.5865 49.6729 34.5794 49.6826 34.5767 49.6863C34.1243 50.3466 33.2234 50.5211 32.5567 50.0746C31.8855 49.6252 31.7057 48.7168 32.1551 48.0457L33.3704 48.8594C32.1551 48.0457 32.1555 48.0451 32.1559 48.0445L32.1568 48.0432L32.1586 48.0405L32.1627 48.0345C32.1656 48.0303 32.1689 48.0254 32.1726 48.0201C32.18 48.0094 32.189 47.9965 32.1997 47.9817C32.221 47.952 32.2488 47.9143 32.2833 47.8696C32.3522 47.7805 32.448 47.6632 32.5715 47.5275C32.8178 47.2568 33.1793 46.9069 33.6623 46.5595Z" fill="white"/>	<path fill-rule="evenodd" clip-rule="evenodd" d="M35.1146 12.214C35.3859 11.4531 36.2225 11.0563 36.9834 11.3275L45.0838 14.2155C45.6706 14.4247 46.0604 14.9826 46.0551 15.6056C46.0498 16.2285 45.6505 16.7797 45.0602 16.9789L38.4028 19.2253C37.6375 19.4835 36.8077 19.0725 36.5495 18.3071C36.2912 17.5418 36.7023 16.712 37.4676 16.4538L40.1309 15.5551L36.0011 14.0827C35.2403 13.8114 34.8434 12.9748 35.1146 12.214Z" fill="white"/>	<path fill-rule="evenodd" clip-rule="evenodd" d="M64.0973 12.214C64.3685 12.9748 63.9716 13.8114 63.2108 14.0827L59.081 15.5551L61.7443 16.4538C62.5096 16.712 62.9207 17.5418 62.6624 18.3071C62.4042 19.0725 61.5744 19.4835 60.8091 19.2253L54.1517 16.9789C53.5614 16.7797 53.1621 16.2285 53.1568 15.6056C53.1515 14.9826 53.5413 14.4247 54.1281 14.2155L62.2285 11.3275C62.9894 11.0563 63.826 11.4531 64.0973 12.214Z" fill="white"/></svg>