<?xml version="1.0" encoding="utf-8"?>
<!-- Generator: Adobe Illustrator 23.0.0, SVG Export Plug-In . SVG Version: 6.00 Build 0)  -->
<svg version="1.1" id="Layer_1" xmlns="http://www.w3.org/2000/svg" xmlns:xlink="http://www.w3.org/1999/xlink" x="0px" y="0px"
	 viewBox="0 0 2428 972" style="enable-background:new 0 0 2428 972;" xml:space="preserve">
<style type="text/css">
	.st0{fill:#FFFFFF;}
</style>
<g>
	<g>
		<path class="st0" d="M892.7,895.4c0-22.8-41.9-13.9-41.9-44.8c0-19.1,16-24.7,29.8-24.7c8.4,0,23.4,2.2,23.4,9.3
			c0,2.6-1.8,7.3-5.7,7.3c-3.5,0-6.8-4.9-17.8-4.9c-9.4,0-16.1,3.6-16.1,11.7c0,19.1,41.9,10.4,41.9,44.7
			c0,18.4-12.4,27.4-29.4,27.4c-16.7,0-28.5-8.8-28.5-15.2c0-3.1,2.7-7.3,5.9-7.3c4.6,0,7.7,10.2,22,10.2
			C885.7,909.1,892.7,904.7,892.7,895.4z"/>
		<path class="st0" d="M937.6,892.5V855c0-20.9,12.5-28.7,28.9-28.7c16.2,0,29,7.9,29,28.7v37.5c0,20.9-12.8,28.7-29,28.7
			C950.1,921.2,937.6,913.3,937.6,892.5z M981.8,855c0-11.3-5.8-16.6-15.3-16.6c-9.7,0-15.2,5.3-15.2,16.6v37.5
			c0,11.3,5.5,16.6,15.2,16.6c9.5,0,15.3-5.3,15.3-16.6V855z"/>
		<path class="st0" d="M1030.7,830.8c0-3,3.1-4.5,6.1-4.5h45.2c3.1,0,4.4,3.1,4.4,5.9c0,3.4-1.5,6.2-4.4,6.2h-37.6v29.5h20
			c2.8,0,4.4,2.6,4.4,5.5c0,2.5-1.3,5.3-4.4,5.3h-20v37.2c0,3.1-3.3,4.5-6.8,4.5c-3.4,0-6.8-1.4-6.8-4.5L1030.7,830.8L1030.7,830.8z
			"/>
		<path class="st0" d="M1166,826.3c3.1,0,4.5,3.1,4.5,6.1c0,3.3-1.5,6.4-4.5,6.4h-19.8v77.1c0,3-3.5,4.5-6.8,4.5
			c-3.5,0-6.8-1.5-6.8-4.5v-77.1h-20c-2.8,0-4.5-3-4.5-6.3c0-3,1.4-6.2,4.5-6.2H1166z"/>
		<path class="st0" d="M1273.2,916.6c-1,3.1-5,4.6-8.8,4.6s-7.7-1.6-8.5-4.6l-9.8-38.9l-9.8,38.9c-0.8,3.1-4.8,4.6-8.6,4.6
			c-3.9,0-7.7-1.6-8.6-4.6l-25.6-83.5c-0.1-0.4-0.1-0.8-0.1-1.3c0-3.2,4.6-5.5,8.5-5.5c2.2,0,4.3,0.9,4.8,2.8l21.1,73.4l11.6-46.1
			c0.6-2.8,3.5-4,6.8-4c3.1,0,5.9,1.2,6.7,4l11.7,46.1l21-73.4c0.5-1.9,2.6-2.8,4.8-2.8c3.9,0,8.5,2.3,8.5,5.5c0,0.5,0,0.9-0.1,1.3
			L1273.2,916.6z"/>
		<path class="st0" d="M1316.9,914.7c0-0.4,0-0.8,0.1-1.2l25.6-83.5c1-3.1,4.8-4.6,8.6-4.6s7.7,1.6,8.8,4.6l25.5,83.5
			c0.1,0.4,0.3,0.8,0.3,1.2c0,3.2-4.8,5.7-8.6,5.7c-2.2,0-4-0.8-4.6-2.8l-5.3-18.3h-31.8l-5.3,18.3c-0.6,2.1-2.4,2.8-4.8,2.8
			C1321.7,920.4,1316.9,918.1,1316.9,914.7z M1364.2,888.3l-12.9-44.2l-12.9,44.2H1364.2z"/>
		<path class="st0" d="M1415.3,830.6c0-2.3,1.8-4.4,4.5-4.4h24.5c16.2,0,29.6,6.3,29.6,26.3c0,15.3-7.9,22.9-18.2,25.5l18,33.9
			c0.4,0.6,0.5,1.4,0.5,1.9c0,3.5-4.4,7-8.2,7c-2.3,0-4.1-1.5-5.4-4l-18.8-36.8h-13v35.9c0,3-3.4,4.5-6.8,4.5s-6.7-1.5-6.7-4.5
			V830.6z M1428.8,838.4V869h15.5c9.7,0,16-4.1,16-15.3s-6.3-15.3-16-15.3H1428.8z"/>
		<path class="st0" d="M1520.3,867.9h19.8c2.8,0,4.5,2.6,4.5,5.5c0,2.5-1.4,5.3-4.5,5.3h-19.8v29.6h38.3c2.8,0,4.5,2.8,4.5,6.2
			c0,2.8-1.4,5.9-4.5,5.9h-45.9c-3,0-6-1.5-6-4.5v-85.1c0-3,3.1-4.5,6-4.5h45.9c3.1,0,4.5,3.1,4.5,5.9c0,3.4-1.7,6.2-4.5,6.2h-38.3
			V867.9z"/>
	</g>
	<g>
		<path class="st0" d="M2343.2,284.6c-4.6-2.7-8.2-6.4-10.8-11.1s-3.9-10-3.9-15.8c0-5.8,1.3-11.1,3.9-15.7c2.6-4.7,6.1-8.3,10.7-11
			s9.7-4,15.4-4s10.8,1.4,15.3,4.1c4.5,2.7,8.1,6.4,10.6,11.1c2.5,4.7,3.8,10,3.8,15.8c0,5.7-1.3,11-3.8,15.7s-6.1,8.4-10.6,11.1
			s-9.6,4-15.3,4S2347.8,287.4,2343.2,284.6z M2370.7,279.9c3.7-2.2,6.7-5.3,8.8-9.2c2.1-3.9,3.2-8.2,3.2-12.9
			c0-4.6-1.1-8.9-3.2-12.8c-2.2-3.9-5.1-7-8.8-9.3s-7.8-3.4-12.2-3.4c-4.6,0-8.8,1.1-12.5,3.4c-3.7,2.3-6.6,5.4-8.7,9.2
			c-2.1,3.9-3.2,8.1-3.2,12.7c0,4.7,1.1,9,3.2,12.9c2.1,3.9,5.1,6.9,8.8,9.2c3.7,2.3,7.9,3.4,12.4,3.4
			C2362.9,283.2,2367,282.1,2370.7,279.9z M2345.7,240.7h13.2c4.2,0,7.3,0.9,9.5,2.6s3.2,4.3,3.2,7.6s-0.4,5.7-1.1,7.4
			c-0.7,1.6-2.1,3-4.1,4l5.7,12.7h-8.2l-4.8-11.5h-5.6V275h-7.8L2345.7,240.7L2345.7,240.7z M2358.9,257.5c1.8,0,3.1-0.4,3.9-1.3
			c0.8-0.9,1.2-2.2,1.2-4.1c0-3.5-2-5.3-5.9-5.3h-4.7v10.6h5.5V257.5z"/>
	</g>
	<path class="st0" d="M39.8,226.9h152.3l178.7,308.3c0,0,8.5,16.5,20.5,16.5c12.1,0,20.3-16.5,20.3-16.5l180-308.3h154.3L527.9,609
		c0,0-40.9,85-135,85s-138.3-85-138.3-85L39.8,226.9z"/>
	<path class="st0" d="M1267.9,226.2H933.2c-83.9,0-152,68.1-152,152v163.7c0,83.9,68.1,152,152,152H1268c83.9,0,152-68.1,152-152
		V378.2C1419.9,294.2,1351.9,226.2,1267.9,226.2 M1284.3,512.1c0,34.6-28,62.6-62.6,62.6H979.6c-34.6,0-62.6-28-62.6-62.6V405.6
		c0-34.6,28-62.6,62.6-62.6h242.2c34.6,0,62.6,28,62.6,62.6L1284.3,512.1L1284.3,512.1z"/>
	<path class="st0" d="M2150.3,226.2h-442.1v467.7h442.1c83.9,0,152-68.1,152-152V378.2C2302.3,294.2,2234.3,226.2,2150.3,226.2
		 M2166.7,512.1c0,34.6-28,62.6-62.6,62.6h-260.3V343h260.3c34.6,0,62.6,28,62.6,62.6V512.1z"/>
	<rect x="1486.3" y="225.3" class="st0" width="134.3" height="467.7"/>
	<path class="st0" d="M1444.9,50.6h216.9l-67,117.3c0,0-12.6,26.1-41.5,26.1s-42.5-26.1-42.5-26.1L1444.9,50.6z"/>
</g>
</svg>
